<svg width="29" height="28" viewBox="0 0 29 28" fill="none" xmlns="http://www.w3.org/2000/svg">
<path fill-rule="evenodd" clip-rule="evenodd" d="M12.0833 3.5C7.41192 3.5 3.625 7.15634 3.625 11.6667C3.625 16.177 7.41192 19.8333 12.0833 19.8333C13.9832 19.8333 15.7368 19.2285 17.1489 18.2074L22.104 22.9917C22.5759 23.4473 23.341 23.4473 23.8128 22.9917C24.2847 22.5361 24.2847 21.7974 23.8128 21.3418L18.8577 16.5575C19.9153 15.1942 20.5417 13.5011 20.5417 11.6667C20.5417 7.15634 16.7547 3.5 12.0833 3.5ZM6.04167 11.6667C6.04167 8.445 8.74661 5.83333 12.0833 5.83333C15.4201 5.83333 18.125 8.445 18.125 11.6667C18.125 14.8883 15.4201 17.5 12.0833 17.5C8.74661 17.5 6.04167 14.8883 6.04167 11.6667Z" fill="#CC2D4A"/>
</svg>
