<svg width="28" height="29" viewBox="0 0 28 29" fill="none" xmlns="http://www.w3.org/2000/svg">
<path fill-rule="evenodd" clip-rule="evenodd" d="M5.22273 18.1311C6.75609 15.9471 9.47174 14.3045 13.9999 14.3045C18.5281 14.3045 21.2438 15.9471 22.7772 18.1311C24.2591 20.2419 24.4952 22.6613 24.4999 24C24.5046 25.3462 23.4 26.2248 22.2676 26.2248H5.7323C4.59984 26.2248 3.49528 25.3462 3.50002 24C3.50473 22.6613 3.74077 20.2419 5.22273 18.1311Z" fill="#CC2D4A"/>
<path fill-rule="evenodd" clip-rule="evenodd" d="M14.0001 11.9204C16.5774 11.9204 18.6667 9.78562 18.6667 7.15224C18.6667 4.51887 16.5774 2.38409 14.0001 2.38409C11.4227 2.38409 9.33339 4.51887 9.33339 7.15224C9.33339 9.78562 11.4227 11.9204 14.0001 11.9204Z" fill="#CC2D4A"/>
</svg>
